<svg xmlns="http://www.w3.org/2000/svg" xmlns:xlink="http://www.w3.org/1999/xlink" version="1.1" x="0px" y="0px" viewBox="0 0 100 125" enable-background="new 0 0 100 100" xml:space="preserve"><g><rect x="54" y="18" width="9" height="9"/><polygon points="63,45 63,54 72,54 72,45 72,36 72,27 63,27 63,36  "/><rect x="54" y="54" width="9" height="9"/><rect x="63" y="63" width="9" height="9"/><rect x="72" y="72" width="9" height="9"/><rect x="81" y="81" width="9" height="9"/><polygon points="18,36 18,27 9,27 9,36 9,45 9,54 18,54 18,45  "/><rect x="18" y="54" width="9" height="9"/><polygon points="45,18 54,18 54,9 45,9 36,9 27,9 27,18 36,18  "/><polygon points="36,63 27,63 27,72 36,72 45,72 54,72 54,63 45,63  "/><rect x="18" y="18" width="9" height="9"/></g><text x="0" y="115" fill="white" font-size="5px" font-weight="bold" font-family="'Helvetica Neue', Helvetica, Arial-Unicode, Arial, Sans-serif">Created by Dileep M</text><text x="0" y="120" fill="white" font-size="5px" font-weight="bold" font-family="'Helvetica Neue', Helvetica, Arial-Unicode, Arial, Sans-serif">from the Noun Project</text></svg>