<svg xmlns="http://www.w3.org/2000/svg" viewBox="0 0 100 125" xml:space="preserve"><path d="M54 18h9v9h-9zM63 45v9h9V27h-9v9zM54 54h9v9h-9zM63 63h9v9h-9zM72 72h9v9h-9zM81 81h9v9h-9zM18 36v-9H9v27h9v-9zM18 54h9v9h-9zM45 18h9V9H27v9h9zM36 63h-9v9h27v-9h-9zM18 18h9v9h-9z"/><text y="115" fill="#fff" font-size="5" font-weight="bold" font-family="'Helvetica Neue', Helvetica, Arial-Unicode, Arial, Sans-serif">Created by Dileep M</text><text y="120" fill="#fff" font-size="5" font-weight="bold" font-family="'Helvetica Neue', Helvetica, Arial-Unicode, Arial, Sans-serif">from the Noun Project</text></svg>