<svg viewBox="0 0 1405 249" fill="none">
    <path d="M588 78.5C587.448 78.5 587 78.9477 587 79.5C587 80.0523 587.448 80.5 588 80.5V78.5ZM894.5 79.5H895.5C895.5 78.9477 895.052 78.5 894.5 78.5V79.5ZM894.5 199V200C895.052 200 895.5 199.552 895.5 199H894.5ZM490.5 199H489.5C489.5 199.552 489.948 200 490.5 200V199ZM490.5 30V29C489.948 29 489.5 29.4477 489.5 30H490.5ZM942.5 30H943.5C943.5 29.4477 943.052 29 942.5 29V30ZM942.5 247.5V248.5C943.052 248.5 943.5 248.052 943.5 247.5H942.5ZM588 80.5H894.5V78.5H588V80.5ZM893.5 79.5V199H895.5V79.5H893.5ZM894.5 198H490.5V200H894.5V198ZM491.5 199V30H489.5V199H491.5ZM490.5 31H942.5V29H490.5V31ZM941.5 30V247.5H943.5V30H941.5ZM942.5 246.5H0V248.5H942.5V246.5Z" fill="#0B9EF5"/>
    <path d="M725.5 173C726.052 173 726.5 172.552 726.5 172C726.5 171.448 726.052 171 725.5 171V173ZM512.5 172H511.5C511.5 172.552 511.948 173 512.5 173V172ZM512.5 51.5V50.5C511.948 50.5 511.5 50.9477 511.5 51.5H512.5ZM917.5 51.5H918.5C918.5 50.9477 918.052 50.5 917.5 50.5V51.5ZM917.5 222.5V223.5C918.052 223.5 918.5 223.052 918.5 222.5H917.5ZM464 222.5H463C463 223.052 463.448 223.5 464 223.5V222.5ZM464 1V0C463.448 0 463 0.447715 463 1L464 1ZM725.5 171H512.5V173H725.5V171ZM513.5 172V51.5H511.5V172H513.5ZM512.5 52.5H917.5V50.5H512.5V52.5ZM916.5 51.5V222.5H918.5V51.5H916.5ZM917.5 221.5H464V223.5H917.5V221.5ZM465 222.5V1H463V222.5H465ZM464 2H1405V0H464V2Z" fill="#FF00FF"/>
</svg>