<svg xmlns="http://www.w3.org/2000/svg"  fill="none"><path fill="#0B9EF5" d="M588 78.5a1 1 0 0 0 0 2v-2Zm306.5 1h1a1 1 0 0 0-1-1v1Zm0 119.5v1a1 1 0 0 0 1-1h-1Zm-404 0h-1a1 1 0 0 0 1 1v-1Zm0-169v-1a1 1 0 0 0-1 1h1Zm452 0h1a1 1 0 0 0-1-1v1Zm0 217.5v1a1 1 0 0 0 1-1h-1ZM588 80.5h306.5v-2H588v2Zm305.5-1V199h2V79.5h-2Zm1 118.5h-404v2h404v-2Zm-403 1V30h-2v169h2Zm-1-168h452v-2h-452v2Zm451-1v217.5h2V30h-2Zm1 216.5H0v2h942.5v-2Z"/><path fill="#F0F" d="M725.5 173a1 1 0 0 0 0-2v2Zm-213-1h-1a1 1 0 0 0 1 1v-1Zm0-120.5v-1a1 1 0 0 0-1 1h1Zm405 0h1a1 1 0 0 0-1-1v1Zm0 171v1a1 1 0 0 0 1-1h-1Zm-453.5 0h-1a1 1 0 0 0 1 1v-1ZM464 1V0a1 1 0 0 0-1 1h1Zm261.5 170h-213v2h213v-2Zm-212 1V51.5h-2V172h2Zm-1-119.5h405v-2h-405v2Zm404-1v171h2v-171h-2Zm1 170H464v2h453.5v-2Zm-452.5 1V1h-2v221.5h2ZM464 2h941V0H464v2Z"/></svg>